<?xml version="1.0" encoding="UTF-8" standalone="no"?>
<!-- Created with Inkscape (http://www.inkscape.org/) -->

<svg
   version="1.1"
   id="svg226"
   width="160"
   height="130"
   viewBox="0 0 160 130"
   sodipodi:docname="TreeVOR.svg"
   inkscape:version="1.2.1 (9c6d41e410, 2022-07-14)"
   xmlns:inkscape="http://www.inkscape.org/namespaces/inkscape"
   xmlns:sodipodi="http://sodipodi.sourceforge.net/DTD/sodipodi-0.dtd"
   xmlns="http://www.w3.org/2000/svg"
   xmlns:svg="http://www.w3.org/2000/svg">
  <defs
     id="defs230" />
  <sodipodi:namedview
     id="namedview228"
     pagecolor="#ffffff"
     bordercolor="#000000"
     borderopacity="0.25"
     inkscape:showpageshadow="2"
     inkscape:pageopacity="0.0"
     inkscape:pagecheckerboard="0"
     inkscape:deskcolor="#d1d1d1"
     showgrid="false"
     inkscape:zoom="4.5526798"
     inkscape:cx="80.831514"
     inkscape:cy="56.010967"
     inkscape:window-width="1920"
     inkscape:window-height="1017"
     inkscape:window-x="-8"
     inkscape:window-y="-8"
     inkscape:window-maximized="1"
     inkscape:current-layer="g232" />
  <g
     inkscape:groupmode="layer"
     inkscape:label="Image"
     id="g232">
    <path
       style="fill:#000000"
       d="m 23.380002,116.54789 c -1.123948,-2.92896 0.771044,-3.54796 10.929015,-3.56995 L 44.5,112.95588 39,109.80341 C 35.975,108.06955 29.85051,102.98764 25.390022,98.510291 19.081215,92.17763 16.358072,88.496331 13.128759,81.934824 6.0444596,67.540529 5.5201932,56.882377 11.658927,52.053648 c 5.403016,-4.250013 12.754942,-1.825894 21.391404,7.053298 l 5.550332,5.706325 -0.02934,-10.656636 c -0.03275,-11.896234 2.657741,-28.570307 5.535526,-34.305863 2.527078,-5.036585 7.767297,-8.081541 13.90793,-8.081541 6.022153,0 10.61575,2.486308 13.902764,7.524941 2.33188,3.574519 2.624204,3.395195 8.249999,3.395195 C 83.377947,22.689367 86,22.2411 86,21.692248 c 0,-0.548416 1.580307,-2.74633 3.511793,-4.884255 8.602074,-9.5214668 24.067277,-5.880599 27.362547,6.441777 2.57669,9.635333 4.24062,23.14974 3.94244,32.020383 -0.17423,5.183034 -0.22976,9.42269 -0.12339,9.421456 0.10636,-0.0012 2.57828,-2.523918 5.49315,-5.605967 5.92546,-6.265297 11.20337,-9.396275 15.83936,-9.396275 16.21844,0 11.7431,28.724791 -7.54712,48.440879 -3.31168,3.384784 -8.90615,7.932774 -12.43216,10.106644 l -6.41094,3.95248 9.58883,0.28509 c 6.78509,0.20173 9.9337,0.70061 10.76825,1.70619 2.54077,3.06144 -0.0154,3.50872 -20.05178,3.50872 -19.123368,0 -19.94098,-0.0802 -19.94098,-1.95559 0,-1.07558 1.168318,-3.66308 2.596261,-5.75 7.730819,-11.298511 14.315749,-28.601953 16.456649,-43.243713 2.42616,-16.592584 -1.18963,-43.191056 -6.4913,-47.751363 -5.69233,-4.896335 -15.070064,-2.113359 -18.211197,5.404433 l -1.407227,3.367969 -9.721593,-0.28587 c -9.208671,-0.270787 -9.738394,-0.0935 -10.040032,-2.216752 -0.175142,-1.232834 -1.672257,-3.595334 -3.326923,-5.25 C 63.356978,17.510824 62.042009,17 58.110168,17 c -7.107295,0 -9.820575,3.295772 -12.073834,14.665864 -2.671282,13.479471 -3.174282,21.276513 -2.032136,31.500316 1.882805,16.85375 7.093607,31.870912 15.686436,45.2072 2.435758,3.78036 4.190936,7.49286 3.900394,8.25 -0.802342,2.09087 -39.407527,2.01839 -40.211026,-0.0755 z M 51.544025,104.75 C 49.664053,101.3125 46.281707,93.707727 44.027701,87.850505 39.587923,76.31337 34.342366,67.409032 28.60673,61.673397 15.5247,48.591366 7.8848493,56.421514 15.477395,75.129763 c 5.469679,13.477445 16.415945,25.169897 29.8884,31.925837 4.326188,2.16942 8.255173,3.9444 8.731079,3.9444 0.475906,0 -0.672876,-2.8125 -2.552849,-6.25 z m 63.949435,1.57593 c 8.0222,-4.19825 19.73654,-15.473473 24.49937,-23.580997 11.23069,-19.117408 8.27657,-34.55291 -4.79998,-25.080303 -8.24241,5.970769 -14.08647,15.040755 -20.63448,32.024737 -2.01445,5.225 -4.98917,11.855683 -6.6105,14.734853 -1.62133,2.87917 -2.94787,5.49699 -2.94787,5.81739 0,0.95681 4.12218,-0.5814 10.49346,-3.91568 z M 54.2,31.8 C 53.54,31.14 53,29.43 53,28 c 0,-3.304758 1.695242,-5 5,-5 3.304758,0 5,1.695242 5,5 0,1.43 -0.54,3.14 -1.2,3.8 -0.66,0.66 -2.37,1.2 -3.8,1.2 -1.43,0 -3.14,-0.54 -3.8,-1.2 z m 42.835184,-1.044892 c -1.45197,-2.713029 -1.290588,-4.66748 0.536245,-6.494312 2.380786,-2.380787 6.426241,-2.115792 8.020531,0.928571 1.2703,2.425696 0.91337,3.2058 -0.4393,5.60404 -1.83905,3.260574 -6.569105,2.854859 -8.117476,-0.0383 z"
       id="path236"
       sodipodi:nodetypes="sscssssscssssssssscsssscsssssssscssssssssssssssssssssssssssssssssssss" />
  </g>
</svg>
